<mxfile host="app.diagrams.net" modified="2023-04-13T07:39:07.750Z" agent="Mozilla/5.0 (X11; Linux x86_64) AppleWebKit/537.36 (KHTML, like Gecko) Chrome/108.0.0.0 Safari/537.36" version="21.1.4" etag="JFWOr7h5EU5vO6QlvE1R" type="github">
  <diagram name="Page-1" id="6Xz4SY9pwsw7d9KYItmx">
    <mxGraphModel>
      <root>
        <mxCell id="0" />
        <mxCell id="1" parent="0" />
      </root>
    </mxGraphModel>
  </diagram>
</mxfile>
